<svg width="62px" height="19px" viewBox="0 0 62 19" version="1.1">
    <g id="Page-1" stroke="none" stroke-width="1" fill="none" fill-rule="evenodd" sketch:type="MSPage">
        <g id="record-icon" sketch:type="MSLayerGroup" fill="#FFFFFF">
            <rect id="Trail" sketch:type="MSShapeGroup" x="40" y="11" width="8" height="5"></rect>
            <rect id="Trail" sketch:type="MSShapeGroup" x="27" y="11" width="8" height="5"></rect>
            <rect id="Trail" sketch:type="MSShapeGroup" x="14" y="11" width="8" height="5"></rect>
            <path d="M48,19 L48,8 L54,13.5 L48,19 Z"></path>
            <polygon points="4.5 8 8.96557618 10.75 8.96557618 16.25 4.5 19 0.0339355508 16.25 0.0339355508 10.75 "></polygon>
            <path d="M57,3 L57,0 L59,0 L59,3 L62,3 L62,5 L59,5 L59,8 L57,8 L57,5 L54,5 L54,3 L57,3 Z" class="plus"></path>
        </g>
    </g>
</svg>