<?xml version="1.0" encoding="utf-8"?>
<!-- Generator: Adobe Illustrator 19.0.0, SVG Export Plug-In . SVG Version: 6.00 Build 0)  -->
<svg version="1.1" id="Livello_1" xmlns="http://www.w3.org/2000/svg" xmlns:xlink="http://www.w3.org/1999/xlink" x="0px" y="0px"
	 viewBox="-255 352 100 90" style="enable-background:new -255 352 100 90;" xml:space="preserve">
<style type="text/css">
	.st0{fill:none;stroke:#FFFFFF;stroke-width:4;stroke-miterlimit:10;}
	.st1{fill:none;stroke:#FFFFFF;stroke-width:4;stroke-linecap:round;stroke-linejoin:bevel;stroke-miterlimit:10;}
	.st2{fill:none;stroke:#FFFFFF;stroke-width:4;stroke-linecap:round;stroke-miterlimit:10;}
</style>
<path class="st0" d="M-251,390.2c0-1.3,0.6-4.2,1.9-4.2h23c1.3,0,2.5,3,2.5,4.2v45c0,1.3-1.1,1.5-2.5,1.5h-23
	c-1.3,0-1.9-0.2-1.9-1.5V390.2z"/>
<path class="st1" d="M-189.7,381.7h25.4c3.2,0,5.9,8.5,5.3,11.4c0,0-7.4,30-9.3,34.7c-1.9,4.7-7.8,4.7-9.3,4.7h-3.6"/>
<path class="st2" d="M-222.2,393.3l4.9-1.9l10.1-18.2c0,0-0.4-9.5,0.6-12.5c1.1-3,10.4-8.2,15.9,3.6c5.5,11.8,0.8,17.1,0.8,17.1"/>
<path class="st2" d="M-177,432.4h-28.3h-2.3c-4.9,0-14.6-5.7-14.6-5.7"/>
</svg>
